<?xml version="1.0" encoding="utf-8" standalone="no"?>
<!DOCTYPE svg PUBLIC "-//W3C//DTD SVG 1.1//EN"
  "http://www.w3.org/Graphics/SVG/1.1/DTD/svg11.dtd">
<svg xmlns:xlink="http://www.w3.org/1999/xlink" width="113.906726pt" height="207.459782pt" viewBox="0 0 113.906726 207.459782" xmlns="http://www.w3.org/2000/svg" version="1.1">
 <metadata>
  <rdf:RDF xmlns:dc="http://purl.org/dc/elements/1.1/" xmlns:cc="http://creativecommons.org/ns#" xmlns:rdf="http://www.w3.org/1999/02/22-rdf-syntax-ns#">
   <cc:Work>
    <dc:type rdf:resource="http://purl.org/dc/dcmitype/StillImage"/>
    <dc:date>2025-12-28T22:51:56.320158</dc:date>
    <dc:format>image/svg+xml</dc:format>
    <dc:creator>
     <cc:Agent>
      <dc:title>Matplotlib v3.10.8, https://matplotlib.org/</dc:title>
     </cc:Agent>
    </dc:creator>
   </cc:Work>
  </rdf:RDF>
 </metadata>
 <defs>
  <style type="text/css">*{stroke-linejoin: round; stroke-linecap: butt}</style>
 </defs>
 <g id="figure_1">
  <g id="patch_1">
   <path d="M 0 207.459782 
L 113.906726 207.459782 
L 113.906726 0 
L 0 0 
z
" style="fill: #ffffff"/>
  </g>
  <g id="axes_1">
   <g id="patch_2">
    <path d="M 8.518365 199.088352 
L 105.388361 199.088352 
L 105.388361 8.371429 
L 8.518365 8.371429 
z
" style="fill: #ffffff"/>
   </g>
   <g id="matplotlib.axis_1"/>
   <g id="matplotlib.axis_2"/>
   <g id="line2d_1">
    <path d="M 59.479992 54.125744 
L 32.206402 24.451595 
" clip-path="url(#p98252a7724)" style="fill: none; stroke: #000000; stroke-linecap: square"/>
   </g>
   <g id="line2d_2">
    <path d="M 59.479992 54.125744 
L 55.656523 12.039062 
" clip-path="url(#p98252a7724)" style="fill: none; stroke: #000000; stroke-linecap: square"/>
   </g>
   <g id="line2d_3">
    <path d="M 59.479992 54.125744 
L 46.757399 105.373131 
" clip-path="url(#p98252a7724)" style="fill: none; stroke: #000000; stroke-linecap: square"/>
   </g>
   <g id="line2d_4">
    <path d="M 59.479992 54.125744 
L 103.525476 46.241539 
" clip-path="url(#p98252a7724)" style="fill: none; stroke: #000000; stroke-linecap: square"/>
   </g>
   <g id="line2d_5">
    <path d="M 32.206402 24.451595 
L 55.656523 12.039062 
" clip-path="url(#p98252a7724)" style="fill: none; stroke: #000000; stroke-linecap: square"/>
   </g>
   <g id="line2d_6">
    <path d="M 46.757399 105.373131 
L 32.438947 156.050312 
" clip-path="url(#p98252a7724)" style="fill: none; stroke: #000000; stroke-linecap: square"/>
   </g>
   <g id="line2d_7">
    <path d="M 32.438947 156.050312 
L 10.38125 186.900903 
" clip-path="url(#p98252a7724)" style="fill: none; stroke: #000000; stroke-linecap: square"/>
   </g>
   <g id="line2d_8">
    <path d="M 32.438947 156.050312 
L 36.574384 195.420719 
" clip-path="url(#p98252a7724)" style="fill: none; stroke: #000000; stroke-linecap: square"/>
   </g>
   <g id="line2d_9">
    <path d="M 10.38125 186.900903 
L 36.574384 195.420719 
" clip-path="url(#p98252a7724)" style="fill: none; stroke: #000000; stroke-linecap: square"/>
   </g>
   <g id="text_1">
    <g id="patch_3">
     <path d="M 38.661947 48.127732 
L 53.024447 48.127732 
L 53.024447 30.449607 
L 38.661947 30.449607 
z
" style="fill: #ffffff; stroke: #ffffff; stroke-linejoin: miter"/>
    </g>
    <!-- 3 -->
    <g style="fill: #0000ff" transform="translate(42.661947 42.048044) scale(0.1 -0.1)">
     <defs>
      <path id="DejaVuSans-33" d="M 2597 2516 
Q 3050 2419 3304 2112 
Q 3559 1806 3559 1356 
Q 3559 666 3084 287 
Q 2609 -91 1734 -91 
Q 1441 -91 1130 -33 
Q 819 25 488 141 
L 488 750 
Q 750 597 1062 519 
Q 1375 441 1716 441 
Q 2309 441 2620 675 
Q 2931 909 2931 1356 
Q 2931 1769 2642 2001 
Q 2353 2234 1838 2234 
L 1294 2234 
L 1294 2753 
L 1863 2753 
Q 2328 2753 2575 2939 
Q 2822 3125 2822 3475 
Q 2822 3834 2567 4026 
Q 2313 4219 1838 4219 
Q 1578 4219 1281 4162 
Q 984 4106 628 3988 
L 628 4550 
Q 988 4650 1302 4700 
Q 1616 4750 1894 4750 
Q 2613 4750 3031 4423 
Q 3450 4097 3450 3541 
Q 3450 3153 3228 2886 
Q 3006 2619 2597 2516 
z
" transform="scale(0.015625)"/>
     </defs>
     <use xlink:href="#DejaVuSans-33"/>
    </g>
   </g>
   <g id="text_2">
    <g id="patch_4">
     <path d="M 50.387008 41.921466 
L 64.749508 41.921466 
L 64.749508 24.243341 
L 50.387008 24.243341 
z
" style="fill: #ffffff; stroke: #ffffff; stroke-linejoin: miter"/>
    </g>
    <!-- 3 -->
    <g style="fill: #0000ff" transform="translate(54.387008 35.841778) scale(0.1 -0.1)">
     <use xlink:href="#DejaVuSans-33"/>
    </g>
   </g>
   <g id="text_3">
    <g id="patch_5">
     <path d="M 45.937445 88.5885 
L 60.299945 88.5885 
L 60.299945 70.910375 
L 45.937445 70.910375 
z
" style="fill: #ffffff; stroke: #ffffff; stroke-linejoin: miter"/>
    </g>
    <!-- 3 -->
    <g style="fill: #0000ff" transform="translate(49.937445 82.508812) scale(0.1 -0.1)">
     <use xlink:href="#DejaVuSans-33"/>
    </g>
   </g>
   <g id="text_4">
    <g id="patch_6">
     <path d="M 74.321484 59.022704 
L 88.683984 59.022704 
L 88.683984 41.344579 
L 74.321484 41.344579 
z
" style="fill: #ffffff; stroke: #ffffff; stroke-linejoin: miter"/>
    </g>
    <!-- 3 -->
    <g style="fill: #0000ff" transform="translate(78.321484 52.943016) scale(0.1 -0.1)">
     <use xlink:href="#DejaVuSans-33"/>
    </g>
   </g>
   <g id="text_5">
    <g id="patch_7">
     <path d="M 36.750212 27.084391 
L 51.112712 27.084391 
L 51.112712 9.406266 
L 36.750212 9.406266 
z
" style="fill: #ffffff; stroke: #ffffff; stroke-linejoin: miter"/>
    </g>
    <!-- 3 -->
    <g style="fill: #0000ff" transform="translate(40.750212 21.004704) scale(0.1 -0.1)">
     <use xlink:href="#DejaVuSans-33"/>
    </g>
   </g>
   <g id="text_6">
    <g id="patch_8">
     <path d="M 32.416923 139.550784 
L 46.779423 139.550784 
L 46.779423 121.872659 
L 32.416923 121.872659 
z
" style="fill: #ffffff; stroke: #ffffff; stroke-linejoin: miter"/>
    </g>
    <!-- 3 -->
    <g style="fill: #0000ff" transform="translate(36.416923 133.471096) scale(0.1 -0.1)">
     <use xlink:href="#DejaVuSans-33"/>
    </g>
   </g>
   <g id="text_7">
    <g id="patch_9">
     <path d="M 14.228848 180.31467 
L 28.591348 180.31467 
L 28.591348 162.636545 
L 14.228848 162.636545 
z
" style="fill: #ffffff; stroke: #ffffff; stroke-linejoin: miter"/>
    </g>
    <!-- 3 -->
    <g style="fill: #0000ff" transform="translate(18.228848 174.234982) scale(0.1 -0.1)">
     <use xlink:href="#DejaVuSans-33"/>
    </g>
   </g>
   <g id="text_8">
    <g id="patch_10">
     <path d="M 27.325415 184.574578 
L 41.687915 184.574578 
L 41.687915 166.896453 
L 27.325415 166.896453 
z
" style="fill: #ffffff; stroke: #ffffff; stroke-linejoin: miter"/>
    </g>
    <!-- 3 -->
    <g style="fill: #0000ff" transform="translate(31.325415 178.49489) scale(0.1 -0.1)">
     <use xlink:href="#DejaVuSans-33"/>
    </g>
   </g>
   <g id="text_9">
    <g id="patch_11">
     <path d="M 16.296567 199.999874 
L 30.659067 199.999874 
L 30.659067 182.321749 
L 16.296567 182.321749 
z
" style="fill: #ffffff; stroke: #ffffff; stroke-linejoin: miter"/>
    </g>
    <!-- 3 -->
    <g style="fill: #0000ff" transform="translate(20.296567 193.920186) scale(0.1 -0.1)">
     <use xlink:href="#DejaVuSans-33"/>
    </g>
   </g>
   <g id="PathCollection_1">
    <defs>
     <path id="mb2645498ed" d="M 0 7.071068 
C 1.875269 7.071068 3.673985 6.326016 5 5 
C 6.326016 3.673985 7.071068 1.875269 7.071068 0 
C 7.071068 -1.875269 6.326016 -3.673985 5 -5 
C 3.673985 -6.326016 1.875269 -7.071068 0 -7.071068 
C -1.875269 -7.071068 -3.673985 -6.326016 -5 -5 
C -6.326016 -3.673985 -7.071068 -1.875269 -7.071068 0 
C -7.071068 1.875269 -6.326016 3.673985 -5 5 
C -3.673985 6.326016 -1.875269 7.071068 0 7.071068 
z
" style="stroke: #000000"/>
    </defs>
    <g>
     <use xlink:href="#mb2645498ed" x="59.479992" y="54.125744" style="fill: #fec7b8; stroke: #000000"/>
     <use xlink:href="#mb2645498ed" x="32.206402" y="24.451595" style="fill: #fec7b8; stroke: #000000"/>
     <use xlink:href="#mb2645498ed" x="55.656523" y="12.039062" style="fill: #fec7b8; stroke: #000000"/>
     <use xlink:href="#mb2645498ed" x="46.757399" y="105.373131" style="fill: #fec7b8; stroke: #000000"/>
     <use xlink:href="#mb2645498ed" x="103.525476" y="46.241539" style="fill: #fec7b8; stroke: #000000"/>
     <use xlink:href="#mb2645498ed" x="32.438947" y="156.050312" style="fill: #fec7b8; stroke: #000000"/>
     <use xlink:href="#mb2645498ed" x="10.38125" y="186.900903" style="fill: #fec7b8; stroke: #000000"/>
     <use xlink:href="#mb2645498ed" x="36.574384" y="195.420719" style="fill: #fec7b8; stroke: #000000"/>
    </g>
   </g>
   <g id="text_10">
    <!-- 0 -->
    <g transform="translate(56.298742 56.885119) scale(0.1 -0.1)">
     <defs>
      <path id="DejaVuSans-30" d="M 2034 4250 
Q 1547 4250 1301 3770 
Q 1056 3291 1056 2328 
Q 1056 1369 1301 889 
Q 1547 409 2034 409 
Q 2525 409 2770 889 
Q 3016 1369 3016 2328 
Q 3016 3291 2770 3770 
Q 2525 4250 2034 4250 
z
M 2034 4750 
Q 2819 4750 3233 4129 
Q 3647 3509 3647 2328 
Q 3647 1150 3233 529 
Q 2819 -91 2034 -91 
Q 1250 -91 836 529 
Q 422 1150 422 2328 
Q 422 3509 836 4129 
Q 1250 4750 2034 4750 
z
" transform="scale(0.015625)"/>
     </defs>
     <use xlink:href="#DejaVuSans-30"/>
    </g>
   </g>
   <g id="text_11">
    <!-- 1 -->
    <g transform="translate(29.025152 27.21097) scale(0.1 -0.1)">
     <defs>
      <path id="DejaVuSans-31" d="M 794 531 
L 1825 531 
L 1825 4091 
L 703 3866 
L 703 4441 
L 1819 4666 
L 2450 4666 
L 2450 531 
L 3481 531 
L 3481 0 
L 794 0 
L 794 531 
z
" transform="scale(0.015625)"/>
     </defs>
     <use xlink:href="#DejaVuSans-31"/>
    </g>
   </g>
   <g id="text_12">
    <!-- 2 -->
    <g transform="translate(52.475273 14.798438) scale(0.1 -0.1)">
     <defs>
      <path id="DejaVuSans-32" d="M 1228 531 
L 3431 531 
L 3431 0 
L 469 0 
L 469 531 
Q 828 903 1448 1529 
Q 2069 2156 2228 2338 
Q 2531 2678 2651 2914 
Q 2772 3150 2772 3378 
Q 2772 3750 2511 3984 
Q 2250 4219 1831 4219 
Q 1534 4219 1204 4116 
Q 875 4013 500 3803 
L 500 4441 
Q 881 4594 1212 4672 
Q 1544 4750 1819 4750 
Q 2544 4750 2975 4387 
Q 3406 4025 3406 3419 
Q 3406 3131 3298 2873 
Q 3191 2616 2906 2266 
Q 2828 2175 2409 1742 
Q 1991 1309 1228 531 
z
" transform="scale(0.015625)"/>
     </defs>
     <use xlink:href="#DejaVuSans-32"/>
    </g>
   </g>
   <g id="text_13">
    <!-- 3 -->
    <g transform="translate(43.576149 108.132506) scale(0.1 -0.1)">
     <use xlink:href="#DejaVuSans-33"/>
    </g>
   </g>
   <g id="text_14">
    <!-- 4 -->
    <g transform="translate(100.344226 49.000914) scale(0.1 -0.1)">
     <defs>
      <path id="DejaVuSans-34" d="M 2419 4116 
L 825 1625 
L 2419 1625 
L 2419 4116 
z
M 2253 4666 
L 3047 4666 
L 3047 1625 
L 3713 1625 
L 3713 1100 
L 3047 1100 
L 3047 0 
L 2419 0 
L 2419 1100 
L 313 1100 
L 313 1709 
L 2253 4666 
z
" transform="scale(0.015625)"/>
     </defs>
     <use xlink:href="#DejaVuSans-34"/>
    </g>
   </g>
   <g id="text_15">
    <!-- 5 -->
    <g transform="translate(29.257697 158.809687) scale(0.1 -0.1)">
     <defs>
      <path id="DejaVuSans-35" d="M 691 4666 
L 3169 4666 
L 3169 4134 
L 1269 4134 
L 1269 2991 
Q 1406 3038 1543 3061 
Q 1681 3084 1819 3084 
Q 2600 3084 3056 2656 
Q 3513 2228 3513 1497 
Q 3513 744 3044 326 
Q 2575 -91 1722 -91 
Q 1428 -91 1123 -41 
Q 819 9 494 109 
L 494 744 
Q 775 591 1075 516 
Q 1375 441 1709 441 
Q 2250 441 2565 725 
Q 2881 1009 2881 1497 
Q 2881 1984 2565 2268 
Q 2250 2553 1709 2553 
Q 1456 2553 1204 2497 
Q 953 2441 691 2322 
L 691 4666 
z
" transform="scale(0.015625)"/>
     </defs>
     <use xlink:href="#DejaVuSans-35"/>
    </g>
   </g>
   <g id="text_16">
    <!-- 6 -->
    <g transform="translate(7.2 189.660278) scale(0.1 -0.1)">
     <defs>
      <path id="DejaVuSans-36" d="M 2113 2584 
Q 1688 2584 1439 2293 
Q 1191 2003 1191 1497 
Q 1191 994 1439 701 
Q 1688 409 2113 409 
Q 2538 409 2786 701 
Q 3034 994 3034 1497 
Q 3034 2003 2786 2293 
Q 2538 2584 2113 2584 
z
M 3366 4563 
L 3366 3988 
Q 3128 4100 2886 4159 
Q 2644 4219 2406 4219 
Q 1781 4219 1451 3797 
Q 1122 3375 1075 2522 
Q 1259 2794 1537 2939 
Q 1816 3084 2150 3084 
Q 2853 3084 3261 2657 
Q 3669 2231 3669 1497 
Q 3669 778 3244 343 
Q 2819 -91 2113 -91 
Q 1303 -91 875 529 
Q 447 1150 447 2328 
Q 447 3434 972 4092 
Q 1497 4750 2381 4750 
Q 2619 4750 2861 4703 
Q 3103 4656 3366 4563 
z
" transform="scale(0.015625)"/>
     </defs>
     <use xlink:href="#DejaVuSans-36"/>
    </g>
   </g>
   <g id="text_17">
    <!-- 7 -->
    <g transform="translate(33.393134 198.180094) scale(0.1 -0.1)">
     <defs>
      <path id="DejaVuSans-37" d="M 525 4666 
L 3525 4666 
L 3525 4397 
L 1831 0 
L 1172 0 
L 2766 4134 
L 525 4134 
L 525 4666 
z
" transform="scale(0.015625)"/>
     </defs>
     <use xlink:href="#DejaVuSans-37"/>
    </g>
   </g>
  </g>
 </g>
 <defs>
  <clipPath id="p98252a7724">
   <rect x="8.518365" y="8.371429" width="96.869995" height="190.716923"/>
  </clipPath>
 </defs>
</svg>
